<?xml version="1.0" standalone="no"?>
<!DOCTYPE svg PUBLIC "-//W3C//DTD SVG 20010904//EN"
 "http://www.w3.org/TR/2001/REC-SVG-20010904/DTD/svg10.dtd">
<svg version="1.0" xmlns="http://www.w3.org/2000/svg"
 width="500.000000pt" height="500.000000pt" viewBox="0 0 500.000000 500.000000"
 preserveAspectRatio="xMidYMid meet">
<metadata>
Created by potrace 1.11, written by Peter Selinger 2001-2013
</metadata>
<g transform="translate(0.000000,500.000000) scale(0.100000,-0.100000)"
fill="#000000" stroke="none">
<path d="M1220 2485 l0 -1295 1295 0 1295 0 0 1295 0 1295 -1295 0 -1295 0 0
-1295z m2260 15 l0 -980 -980 0 -980 0 0 980 0 980 980 0 980 0 0 -980z"/>
<path d="M1580 2500 l0 -920 920 0 920 0 0 920 0 920 -920 0 -920 0 0 -920z
m242 698 l3 -202 140 202 140 202 128 0 128 0 -171 -224 c-93 -124 -170 -227
-170 -230 0 -5 191 -252 343 -443 7 -10 -19 -13 -125 -13 l-133 0 -140 202
-140 202 -3 -202 -2 -202 -95 0 -95 0 0 455 0 455 95 0 95 0 2 -202z m1023
186 c130 -45 189 -198 124 -326 -10 -20 -30 -45 -44 -56 l-25 -20 45 -22 c136
-66 169 -277 62 -388 -69 -73 -86 -77 -339 -80 l-228 -3 0 455 0 456 178 0
c139 0 189 -4 227 -16z m501 -696 c70 -69 33 -182 -64 -195 -51 -7 -95 18
-118 65 -23 48 -12 93 33 132 32 29 41 32 81 27 29 -3 53 -13 68 -29z"/>
<path d="M2640 3135 l0 -105 40 0 c56 0 99 24 116 67 32 75 -19 143 -107 143
l-49 0 0 -105z"/>
<path d="M2640 2754 l0 -117 81 6 c71 5 85 9 110 33 37 36 46 81 24 127 -22
47 -66 67 -149 67 l-66 0 0 -116z"/>
</g>
</svg>
