<?xml version="1.0" standalone="no"?>
<!DOCTYPE svg PUBLIC "-//W3C//DTD SVG 20010904//EN"
 "http://www.w3.org/TR/2001/REC-SVG-20010904/DTD/svg10.dtd">
<svg version="1.0" xmlns="http://www.w3.org/2000/svg"
 width="187.000000pt" height="187.000000pt" viewBox="0 0 187.000000 187.000000"
 preserveAspectRatio="xMidYMid meet">
<metadata>
Created by potrace 1.11, written by Peter Selinger 2001-2013
</metadata>
<g transform="translate(0.000000,187.000000) scale(0.100000,-0.100000)"
fill="#000000" stroke="none">
<path d="M10 935 l0 -935 925 0 925 0 0 935 0 935 -925 0 -925 0 0 -935z m390
95 l0 -210 34 0 c19 0 42 3 50 6 9 3 81 88 160 188 79 99 155 191 168 204 23
21 33 23 125 20 l100 -3 -179 -219 c-98 -121 -186 -225 -196 -232 -16 -11 -15
-14 10 -33 14 -12 110 -133 212 -271 l186 -250 -105 0 c-87 0 -108 3 -122 18
-10 10 -85 106 -168 214 -156 205 -170 218 -241 218 l-34 0 0 -225 0 -225 -95
0 -95 0 0 505 0 505 95 0 95 0 0 -210z"/>
</g>
</svg>
